<svg width="845" height="137" viewBox="0 0 845 137" fill="none" xmlns="http://www.w3.org/2000/svg">
<path d="M126.522 0.000312926H46.2709C45.8055 0.000364166 45.3448 0.0929938 44.9152 0.272872C44.4856 0.45275 44.0956 0.716326 43.7676 1.04843L43.3323 1.49428L19.6527 25.2647L1.08059 44.037C0.744334 44.3795 0.479959 44.7865 0.303186 45.2338C0.112974 45.6763 0.0100053 46.1518 0 46.6339L0 112.47C0.00158123 112.9 0.168801 113.312 0.46644 113.62C0.611613 113.771 0.78556 113.891 0.977896 113.973C1.17023 114.055 1.37701 114.097 1.5859 114.097H30.684C30.8942 114.098 31.1024 114.056 31.2962 113.974C31.4899 113.892 31.6651 113.772 31.8112 113.62C32.1088 113.312 32.2761 112.9 32.2776 112.47V39.5001V34.807L33.1717 33.9234L37.2297 29.8248L47.8179 19.2732H111.013C111.013 22.4019 111.013 25.3351 111.013 28.5186C111 28.8288 110.885 29.126 110.686 29.3633C109.909 30.255 109.077 31.0841 108.292 31.9758C108.16 32.1298 107.995 32.2504 107.808 32.3278C107.622 32.4053 107.42 32.4374 107.219 32.4217H60.2252H51.9536L45.7344 38.4601V49.8877V64.5536H111.036C111.036 67.6823 111.036 70.6155 111.036 73.7911C111.023 74.1037 110.909 74.4033 110.71 74.6437C109.932 75.5276 109.1 76.3645 108.315 77.2484C108.185 77.4047 108.02 77.5275 107.834 77.6064C107.647 77.6854 107.444 77.7182 107.242 77.702H45.7811V135.394C45.7811 135.888 46.1809 136.287 46.674 136.287H80.5386C81.0086 136.292 81.4744 136.199 81.9069 136.014C82.3412 135.834 82.7352 135.568 83.0652 135.231L127.05 90.1622C127.381 89.8124 127.645 89.404 127.828 88.9576C128.013 88.5116 128.108 88.033 128.108 87.5497V1.56467C128.108 1.35658 128.067 1.15057 127.986 0.958702C127.906 0.766837 127.789 0.592974 127.641 0.447293C127.494 0.301612 127.319 0.187042 127.126 0.110291C126.934 0.0335402 126.729 -0.00384896 126.522 0.000312926Z" fill="#A1A1A1"/>
<path fill-rule="evenodd" clip-rule="evenodd" d="M750.605 32.152C750.532 31.0829 750.087 30.0727 749.348 29.2951C747.416 27.3185 745.426 25.3337 743.436 23.3488C741.712 21.6214 740.046 19.9023 738.381 18.2164C737.916 17.7058 737.349 17.2984 736.716 17.0205C736.056 16.7397 735.342 16.6092 734.626 16.6384H666.96V103.342L667.942 103.433H668.15C668.369 103.462 668.588 103.478 668.808 103.483C690.947 103.527 713.094 103.527 735.25 103.483H735.325C736.302 103.413 737.224 103.004 737.931 102.328C741.817 98.5303 745.651 94.7018 749.431 90.8428C750.148 90.0885 750.566 89.0995 750.605 88.0606C750.666 69.441 750.666 50.8242 750.605 32.2101V32.152ZM731.719 89.3147C731.473 89.4934 731.188 89.6102 730.887 89.6552H683.356V30.5824C683.581 30.5824 683.797 30.5824 684.03 30.5824H730.379C731.37 30.6902 732.283 31.1678 732.935 31.9195C733.684 32.5992 734.156 33.5307 734.259 34.5355V85.8681C734.228 86.2373 734.114 86.5948 733.926 86.9146C733.665 87.4059 733.34 87.861 732.96 88.2682C732.596 88.6715 732.179 89.0236 731.719 89.3147Z" fill="#A1A1A1"/>
<path fill-rule="evenodd" clip-rule="evenodd" d="M312.45 76.4758C313.353 76.5833 314.27 76.4634 315.115 76.1268C315.96 75.7902 316.707 75.2478 317.288 74.549C318.953 72.8133 320.66 71.1025 322.384 69.4L322.775 69.0097C324.374 67.4151 325.973 65.8206 327.555 64.2011C328.272 63.4086 328.693 62.3936 328.746 61.3276V61.2778C328.818 51.6441 328.818 42.0104 328.746 32.3767C328.701 31.2525 328.262 30.1796 327.505 29.3454C323.808 25.4698 320.038 21.6911 316.197 18.0092C315.324 17.2159 314.197 16.7569 313.016 16.7137C291.266 16.6638 269.532 16.6389 247.815 16.6389C247.49 16.6389 247.182 16.6389 246.916 16.6389C246.633 16.6389 246.391 16.6389 246.166 16.6389H245.084V103.425H261.446V76.4342H272.43C279.236 76.4342 286.036 76.4342 292.831 76.4342H292.881C293.207 76.4167 293.532 76.4855 293.822 76.6336C294.109 76.7831 294.351 77.0068 294.522 77.2813C300.539 85.5752 306.551 93.822 312.558 102.022C313.082 102.782 313.877 103.314 314.781 103.508H314.89H314.998C317.971 103.508 320.96 103.508 323.933 103.508H328.363C328.569 103.503 328.771 103.452 328.954 103.359C329.045 103.308 329.131 103.249 329.212 103.184L329.279 103.135L330.22 102.512L311.309 76.4342C311.684 76.4342 312.033 76.4343 312.45 76.4758ZM309.236 63.844H261.963H261.538V30.6244H262.204H308.544C309.544 30.7304 310.469 31.2006 311.142 31.9449C311.889 32.614 312.363 33.5331 312.475 34.5277V60.6051C312.361 61.4201 311.959 62.1679 311.342 62.7145C310.801 63.3345 310.052 63.7361 309.236 63.844Z" fill="#A1A1A1"/>
<path fill-rule="evenodd" clip-rule="evenodd" d="M231.061 32.4182C231.001 31.2463 230.536 30.1313 229.746 29.2624C226.049 25.4587 222.29 21.7077 218.471 18.0092C217.685 17.2435 216.652 16.7814 215.556 16.7053H215.498C197.961 16.661 180.427 16.661 162.896 16.7053C161.88 16.7396 160.908 17.1274 160.148 17.8016C156.262 21.572 152.426 25.3978 148.64 29.279C147.906 30.0729 147.476 31.0989 147.424 32.1774V32.2272C147.374 50.7804 147.374 69.3418 147.424 87.9116V87.9531C147.473 89.0283 147.9 90.0518 148.632 90.8432C152.362 94.6856 156.162 98.4755 160.031 102.213C160.816 102.937 161.829 103.365 162.896 103.425H162.954C180.486 103.475 198.02 103.475 215.556 103.425H215.615C216.686 103.372 217.703 102.942 218.488 102.213C222.318 98.5253 226.079 94.7715 229.771 90.9512C230.56 90.0855 231.022 88.9725 231.078 87.8036C231.122 78.5907 231.136 69.3861 231.12 60.1898V54.3764C231.12 47.0681 231.12 39.7598 231.078 32.4514L231.061 32.4182ZM214.79 85.7773C214.658 86.7377 214.189 87.6203 213.466 88.2687C212.828 89.007 211.938 89.4833 210.968 89.6058H167.543C166.623 89.4382 165.775 88.9985 165.11 88.3438C164.445 87.689 163.992 86.8497 163.812 85.935V34.2453C163.931 33.3045 164.39 32.4394 165.103 31.812C165.75 31.094 166.639 30.6388 167.601 30.533H211.051C212.021 30.6555 212.911 31.1318 213.55 31.8701C214.283 32.5311 214.753 33.4332 214.874 34.4114V57.9558L214.79 85.7773Z" fill="#A1A1A1"/>
<path fill-rule="evenodd" clip-rule="evenodd" d="M844.965 93.6931C844.965 92.7297 844.965 91.7581 844.965 90.7864V89.7234H784.594V66.5527H832.699V53.8794H784.569V30.5509H839.877C840.454 30.5365 841.022 30.4007 841.542 30.1523C842.078 29.9158 842.584 29.6176 843.05 29.2636C843.518 28.9132 843.938 28.5027 844.299 28.0428C844.683 27.5689 844.912 26.9894 844.957 26.3818C845.007 24.4883 844.957 22.5782 844.957 20.6764C844.957 19.7296 844.957 18.7829 844.957 17.8527V16.7897H768.098V103.368L769.08 103.46H769.322C769.568 103.491 769.815 103.511 770.063 103.518H840.26C840.808 103.488 841.341 103.332 841.817 103.061C842.315 102.802 842.781 102.487 843.208 102.123C843.646 101.769 844.038 101.362 844.374 100.91C844.734 100.459 844.946 99.9079 844.982 99.3321C844.965 97.5051 844.965 95.6115 844.965 93.6931Z" fill="#A1A1A1"/>
<path fill-rule="evenodd" clip-rule="evenodd" d="M649.455 18.5891C649.455 18.3067 649.414 18.0575 649.414 17.8167V16.7454H633.084L633.134 20.1255V85.5681C633.024 86.6075 632.559 87.5777 631.818 88.3168C631.077 89.0559 630.104 89.5191 629.062 89.6292H586.095C585.069 89.5634 584.108 89.1052 583.413 88.3503C582.654 87.6482 582.195 86.6818 582.131 85.6512V16.8284H565.885L565.818 17.8333C565.818 17.9606 565.818 18.0935 565.818 18.2319C565.818 18.5392 565.768 18.8548 565.768 19.1372C565.768 42.1528 565.768 65.163 565.768 88.1676V88.2257C565.823 89.2488 566.239 90.2195 566.942 90.9663C570.673 94.8032 574.473 98.5902 578.342 102.327C579.086 103.032 580.057 103.45 581.082 103.507H581.132C598.735 103.557 616.333 103.557 633.925 103.507H634.009C635.072 103.424 636.073 102.968 636.831 102.219C638.83 100.276 640.845 98.2663 642.852 96.2649C644.576 94.5457 646.299 92.8266 648.006 91.1573C648.491 90.7202 648.872 90.1813 649.122 89.5794C649.372 88.9803 649.488 88.3343 649.464 87.6859V19.5026C649.464 19.187 649.464 18.8797 649.464 18.6057L649.455 18.5891Z" fill="#A1A1A1"/>
<path fill-rule="evenodd" clip-rule="evenodd" d="M425.826 17.8256V16.7543H344.029V30.6069H376.697V103.474H393.101V30.5487H420.797C421.349 30.5238 421.891 30.3853 422.387 30.1418C422.906 29.8961 423.399 29.6013 423.861 29.2615C424.322 28.9206 424.738 28.5246 425.102 28.0822C425.492 27.639 425.731 27.0835 425.785 26.4959C425.868 24.428 425.851 22.3435 425.835 20.2506C425.826 19.4368 425.826 18.6312 425.826 17.8256Z" fill="#A1A1A1"/>
<path fill-rule="evenodd" clip-rule="evenodd" d="M551.852 17.8666V16.7953H469.988V30.5731H502.672V103.449H519.068V30.5482H546.772C547.352 30.5276 547.921 30.3802 548.438 30.1164C548.972 29.8653 549.475 29.5531 549.937 29.1862C550.403 28.8332 550.822 28.423 551.186 27.9654C551.577 27.4947 551.813 26.9143 551.86 26.3044C551.86 24.4109 551.86 22.5091 551.86 20.6239C551.852 19.7186 551.852 18.7885 551.852 17.8666Z" fill="#A1A1A1"/>
<path d="M455.942 16.7709H439.712V103.532H455.942V16.7709Z" fill="#A1A1A1"/>
</svg>
