<svg width="694" height="119" viewBox="0 0 694 119" fill="none" xmlns="http://www.w3.org/2000/svg">
<g clip-path="url(#clip0_4015_501)">
<g filter="url(#filter0_iii_4015_501)">
<path d="M542.628 0C537.866 0 534.117 3.46551 534.117 8.36906C534.117 13.2491 537.866 16.7382 542.628 16.7382C547.39 16.7382 551.138 13.2491 551.138 8.36906C551.138 3.48908 547.39 0 542.628 0Z" fill="#A1A1A1"/>
<path d="M549.465 26.027H535.532V92.0367H549.465V26.027Z" fill="#A1A1A1"/>
<path fill-rule="evenodd" clip-rule="evenodd" d="M444.132 1.79126H430.223V35.1733C425.956 29.3739 418.883 25.2483 408.817 25.2483C390.899 25.2483 377.627 37.8844 377.627 59.031C377.627 80.1779 390.899 92.8139 408.817 92.8139C419.26 92.8139 426.097 87.91 430.34 82.1108L432.014 92.036H444.132V1.79126ZM411.127 37.1064C422.725 37.1064 430.34 46.1356 430.34 59.2904C430.34 72.0444 422.725 81.0738 411.127 81.0738C399.528 81.0738 391.913 71.9264 391.913 59.031C391.913 46.1356 399.528 37.1064 411.127 37.1064Z" fill="#A1A1A1"/>
<path d="M298.722 54.0103V92.0367H284.789V54.9061C284.789 43.3073 280.027 37.2485 270.998 37.2485C261.45 37.2485 255.391 44.4625 255.391 56.3206V92.0367H241.341V54.9061C241.341 43.3073 236.579 37.2485 227.408 37.2485C218.237 37.2485 211.943 44.9811 211.943 56.7214V92.0367H198.01V26.0269H210.127L211.684 34.6553C215.432 29.7517 221.09 25.3668 231.015 25.2489C239.644 25.2489 247.376 28.738 251.384 37.2485C255.627 30.0346 263.124 25.2489 273.945 25.2489C287.618 25.2489 298.698 33.1229 298.698 53.9867L298.722 54.0103Z" fill="#A1A1A1"/>
<path fill-rule="evenodd" clip-rule="evenodd" d="M367.419 49.2246V92.0367H355.302L354.146 82.6302C349.644 88.5711 343.326 92.8146 332.882 92.8146C318.454 92.8146 308.765 85.7186 308.765 73.4834C308.765 59.9509 318.572 52.3364 337.125 52.3364H353.628V48.3288C353.628 40.9734 348.347 36.4706 339.2 36.4706C330.949 36.4706 325.409 40.3368 324.371 46.1362H310.698C312.112 33.2408 323.192 25.2489 339.836 25.2489C357.376 25.2489 367.419 33.6416 367.419 49.2246ZM353.628 64.9491V62.6386H336.347C327.719 62.6386 322.933 65.8687 322.933 72.5638C322.933 78.1039 327.577 81.9703 335.192 81.9703C346.791 81.9703 353.51 75.1335 353.628 64.9491Z" fill="#A1A1A1"/>
<path fill-rule="evenodd" clip-rule="evenodd" d="M509.742 26.026H509.758L508.21 36.3047C503.942 29.7273 496.87 25.2245 486.544 25.2245C468.627 25.2245 455.354 37.7192 455.354 58.748C455.354 79.777 468.627 92.2713 486.544 92.2713C496.846 92.2713 503.683 88.0279 508.068 81.4508V88.8058C508.068 101.442 501.231 107.242 489.114 107.242C479.307 107.242 472.871 102.998 471.197 95.6426H457.005C458.301 110.448 470.537 118.581 488.076 118.581C511.793 118.581 521.859 107.242 521.859 89.3246V26.026H509.758L509.765 25.9789L509.742 26.026ZM508.068 59.0308C508.068 46.0175 500.453 36.9884 488.854 36.9884C477.256 36.9884 469.641 46.0175 469.641 58.7715C469.641 71.5255 477.256 80.5549 488.854 80.5549C500.453 80.5549 508.068 71.6672 508.068 59.0308Z" fill="#A1A1A1"/>
<path d="M560.664 59.1496C560.664 38.7809 573.818 25.2489 593.785 25.2489C610.807 25.2489 621.367 34.6552 624.082 49.6253H609.508C607.694 41.8927 602.156 37.1306 593.53 37.1306C582.305 37.1306 574.973 46.1598 574.973 59.1731C574.973 72.1863 582.328 80.9565 593.53 80.9565C602.038 80.9565 607.694 76.0526 609.39 68.4616H624.082C621.509 83.4082 610.291 92.8378 593.411 92.8378C573.417 92.8378 560.664 79.8247 560.664 59.1967V59.1496Z" fill="#A1A1A1"/>
<path d="M628.25 26.027L651.593 58.2538L626.839 92.0367H642.183L659.585 68.0608L676.863 92.0367H693.108L668.236 58.2538L691.691 26.027H676.347L660.22 48.3288L644.496 26.027H628.25Z" fill="#A1A1A1"/>
</g>
<g clip-path="url(#clip1_4015_501)">
<path d="M2.8877 46.8809L37.6417 17.3268L37.6653 17.3027C38.5152 16.5801 39.5777 16.1947 40.6874 16.1947H73.8359C75.6301 16.1947 77.2596 17.2304 78.0621 18.8683L114.539 93.2713H79.6909C77.8966 93.2713 76.2678 92.2357 75.4652 90.5979L44.5122 27.4672C44.0164 26.4556 43.0011 25.8293 41.8915 25.8293C40.2624 25.8293 38.9639 27.1782 38.9639 28.816V88.4782C38.9639 91.1278 36.8389 93.2956 34.2418 93.2956H1.18777V50.5902C1.18777 49.1451 1.80164 47.7962 2.8877 46.8809Z" fill="#A1A1A1"/>
<path d="M93.9319 16.218H128.78C130.575 16.218 132.204 17.2537 133.007 18.8916L169.484 93.2946H134.636C132.841 93.2946 131.212 92.2589 130.41 90.6212L93.9319 16.218Z" fill="#A1A1A1"/>
</g>
</g>
<defs>
<filter id="filter0_iii_4015_501" x="198.01" y="0" width="495.098" height="130.439" filterUnits="userSpaceOnUse" color-interpolation-filters="sRGB">
<feFlood flood-opacity="0" result="BackgroundImageFix"/>
<feBlend mode="normal" in="SourceGraphic" in2="BackgroundImageFix" result="shape"/>
<feColorMatrix in="SourceAlpha" type="matrix" values="0 0 0 0 0 0 0 0 0 0 0 0 0 0 0 0 0 0 127 0" result="hardAlpha"/>
<feOffset dy="2.96453"/>
<feGaussianBlur stdDeviation="1.48227"/>
<feComposite in2="hardAlpha" operator="arithmetic" k2="-1" k3="1"/>
<feColorMatrix type="matrix" values="0 0 0 0 1 0 0 0 0 1 0 0 0 0 1 0 0 0 0.2 0"/>
<feBlend mode="normal" in2="shape" result="effect1_innerShadow_4015_501"/>
<feColorMatrix in="SourceAlpha" type="matrix" values="0 0 0 0 0 0 0 0 0 0 0 0 0 0 0 0 0 0 127 0" result="hardAlpha"/>
<feOffset dy="5.92907"/>
<feGaussianBlur stdDeviation="5.92907"/>
<feComposite in2="hardAlpha" operator="arithmetic" k2="-1" k3="1"/>
<feColorMatrix type="matrix" values="0 0 0 0 1 0 0 0 0 1 0 0 0 0 1 0 0 0 0.2 0"/>
<feBlend mode="normal" in2="effect1_innerShadow_4015_501" result="effect2_innerShadow_4015_501"/>
<feColorMatrix in="SourceAlpha" type="matrix" values="0 0 0 0 0 0 0 0 0 0 0 0 0 0 0 0 0 0 127 0" result="hardAlpha"/>
<feOffset dy="11.8581"/>
<feGaussianBlur stdDeviation="8.8936"/>
<feComposite in2="hardAlpha" operator="arithmetic" k2="-1" k3="1"/>
<feColorMatrix type="matrix" values="0 0 0 0 1 0 0 0 0 1 0 0 0 0 1 0 0 0 0.2 0"/>
<feBlend mode="normal" in2="effect2_innerShadow_4015_501" result="effect3_innerShadow_4015_501"/>
</filter>
<clipPath id="clip0_4015_501">
<rect width="693.701" height="118.581" fill="white"/>
</clipPath>
<clipPath id="clip1_4015_501">
<rect width="170.007" height="77.2759" fill="white" transform="translate(1.19043 16.1947)"/>
</clipPath>
</defs>
</svg>
