<svg width="662" height="128" viewBox="0 0 662 128" fill="none" xmlns="http://www.w3.org/2000/svg">
<path d="M0 11.5638C0 5.17729 5.17728 0 11.5638 0H115.638C122.024 0 127.202 5.17728 127.202 11.5638V115.638C127.202 122.024 122.024 127.202 115.638 127.202H11.5638C5.17729 127.202 0 122.024 0 115.638V11.5638Z" fill="#A1A1A1"/>
<path d="M92.0717 79.2196C91.4867 78.5586 91.0522 78.6549 90.655 78.9078C90.2577 79.1602 90.1794 79.932 90.5634 80.4991C90.5634 80.4991 91.2187 81.2582 91.5801 81.9083C91.9406 82.558 91.4353 83.461 90.8333 84.6159C90.2945 85.6486 88.5499 87.6004 88.1842 88.0042C83.2762 93.3109 78.8764 95.4759 75.3243 94.1492C73.0456 93.2986 70.9051 88.5864 69.5671 84.9004C68.4122 85.4627 67.0761 86.0246 65.6287 86.478C67.0921 90.9642 70.2602 97.4064 74.1637 98.0905C79.2378 98.9789 83.1668 96.8271 86.4929 93.6775C88.6225 91.661 91.4447 87.7792 91.8538 87.2211C92.3619 86.5266 93.3498 84.673 93.5522 84.0049C93.7258 83.4326 93.8537 82.4768 93.6546 81.6804C93.4507 80.8661 92.6577 79.8811 92.0717 79.2196Z" fill="white"/>
<path d="M49.1654 75.1541C49.389 75.147 49.6126 75.1385 49.8367 75.1281C54.6753 74.9088 59.4838 74.0006 64.0643 72.4239C68.4548 70.9118 72.6324 68.8577 76.4845 66.2558C77.8621 65.3249 79.1775 64.3186 80.4669 63.2703C81.4774 62.4296 85.1106 59.3828 86.7147 57.6098C87.8008 56.4091 86.7308 55.5109 85.6409 56.6818C83.977 58.469 80.3871 60.9491 79.561 61.529C74.2082 65.2881 69.504 67.5267 64.6951 68.6954C64.6404 68.3887 64.571 68.0849 64.5205 67.7777C64.0931 65.1971 63.8067 62.5933 63.6638 59.982C63.5925 58.6761 63.5567 57.3683 63.5572 56.0605C63.5576 55.3726 64.0077 53.3029 62.9542 53.11C62.2966 52.9897 61.9522 54.0611 61.8394 54.5182C61.804 54.6612 61.771 54.806 61.7408 54.9518C61.2365 57.3574 61.3558 60.1278 61.3549 62.5447C61.3539 64.7979 61.4893 67.0488 61.7054 69.2912C58.8653 69.7201 55.9261 69.8055 52.759 69.6347C52.6306 68.2245 52.5542 66.8096 52.5467 65.3896C52.5452 65.1131 52.5467 64.8357 52.5504 64.5588C52.6037 60.6967 53.2062 56.8116 54.5541 53.1831C55.2217 51.3837 56.0747 49.6518 57.1282 48.0463C57.3225 47.7509 57.5801 47.4627 57.7802 47.1499C57.9476 46.8871 58.0741 46.6064 58.0878 46.2884C58.1019 45.9572 57.9208 45.5949 57.6014 45.5071C57.2692 45.4161 56.938 45.6388 56.68 45.8671C54.6234 47.6849 53.0835 50.4798 51.9286 52.9316C50.3599 56.2605 49.3947 59.8635 48.9686 63.5142C48.7445 65.4367 48.6709 67.3706 48.7096 69.303C46.3054 69.0398 43.7488 68.6647 40.9898 68.2028C40.0278 63.4236 40.8837 58.1774 42.5382 53.5124C47.9911 38.1383 61.8738 30.5643 77.581 32.584C80.8018 32.9982 84.8799 34.1466 90.9079 38.8073C91.8232 39.515 93.0239 37.9907 91.5703 36.7867C88.441 34.1947 84.1458 31.0951 77.664 29.7689C59.8032 26.1135 41.8381 34.2631 34.8684 51.4582C32.3 57.7957 31.8551 66.3449 35.3638 73.6416C39.8764 74.7979 44.5122 75.3022 49.1654 75.1541Z" fill="white"/>
<path d="M92.6352 62.5838C91.6836 64.0482 90.4239 65.364 89.228 66.6246C87.3729 68.5797 85.3876 70.4031 83.2745 72.0775C81.1769 73.7391 78.9629 75.254 76.6539 76.6066C74.3394 77.9809 71.9304 79.0835 69.3658 79.9044C68.8473 80.0705 68.3255 80.2262 67.8014 80.3743C66.9625 78.6103 66.4941 76.4684 65.9982 74.6185C65.8869 74.2005 65.7944 73.7783 65.6939 73.3575C64.6635 73.7872 63.578 74.2175 62.4395 74.6369C62.675 76.0306 62.9335 77.4205 63.2619 78.7957C63.4567 79.6119 63.6671 80.4238 63.8912 81.2325C60.8227 81.6552 57.7 81.7095 54.7528 81.1924C54.4456 79.8539 54.1635 78.5079 53.8979 77.1586C52.5137 77.462 51.0851 77.7205 49.6164 77.922C49.74 78.5292 49.8721 79.134 50.0094 79.7379C49.0762 79.3104 48.1888 78.7858 47.3415 78.1848C44.4244 78.4532 41.3687 78.4749 38.2068 78.1531C38.5224 78.5447 38.8376 78.9363 39.1839 79.3133C45.234 85.8857 55.977 86.3735 64.4824 84.6704C67.0494 84.1377 68.9341 83.6037 73.3944 81.4245C78.776 78.8943 82.9306 76.0127 85.8344 73.1433C89.7837 69.2402 92.2261 66.2948 94.176 62.9164C94.8323 61.7784 93.6453 61.0307 92.6352 62.5838Z" fill="white"/>
<path d="M563.294 81.8046C562.3 82.4138 561.259 82.9687 560.139 83.4355C557.424 84.5641 554.462 85.129 551.252 85.129C548.042 85.129 545.09 84.5641 542.396 83.4355C539.7 82.3057 537.373 80.7802 535.411 78.8581C533.45 76.9366 531.923 74.6781 530.835 72.0819C529.745 69.4868 529.201 66.7026 529.201 63.7305V63.611C529.201 60.6397 529.755 57.8565 530.865 55.2613C531.973 52.6652 533.509 50.3862 535.471 48.4244C537.433 46.4635 539.771 44.9173 542.484 43.7883C545.199 42.6594 548.162 42.0945 551.371 42.0945C554.581 42.0945 557.533 42.6594 560.228 43.7883C562.921 44.9173 565.25 46.4433 567.212 48.3656C567.251 48.4033 567.283 48.4464 567.322 48.4842C569.569 45.8011 573.037 41.8801 576.613 37.7703C575.398 36.6528 574.136 35.5845 572.775 34.6119C570.961 33.317 568.986 32.2161 566.847 31.3086C564.71 30.4019 562.327 29.6886 559.704 29.1702C557.081 28.6527 554.181 28.3927 551.009 28.3927C545.761 28.3927 540.967 29.3161 536.627 31.1619C532.287 33.0077 528.563 35.5344 525.453 38.7411C522.343 41.9469 519.914 45.6728 518.164 49.9162C516.416 54.1605 515.54 58.7096 515.54 63.5688V63.763C515.54 68.6213 516.416 73.188 518.164 77.4641C519.914 81.7387 522.343 85.4489 525.453 88.5897C528.563 91.7333 532.254 94.2107 536.53 96.023C540.806 97.8364 545.437 98.7441 550.425 98.7441C553.73 98.7441 556.707 98.4682 559.367 97.918C562.021 97.3673 564.467 96.5563 566.701 95.489C568.937 94.4207 570.992 93.1424 572.872 91.6505C572.926 91.6083 572.978 91.5565 573.032 91.5126C569.465 88.4438 565.83 84.6802 563.294 81.8046Z" fill="#A1A1A1"/>
<path d="M604.628 98.55C599.442 98.55 594.357 97.6584 589.372 95.8777C584.381 94.0965 576.955 89.7742 571.091 83.6175C575.231 81.8649 578.813 79.0834 582.101 75.9223C585.567 78.3716 590.909 81.6109 594.181 83.0999C597.452 84.5907 601.031 85.3351 604.917 85.3351C608.027 85.3351 610.441 84.7682 612.157 83.6333C613.874 82.5018 614.732 80.93 614.732 78.9217V78.7264C614.732 77.7556 614.552 76.8973 614.197 76.1522C613.838 75.4076 613.156 74.7105 612.15 74.0633C611.143 73.4168 609.747 72.7674 607.961 72.1199C606.173 71.4733 603.852 70.7924 600.995 70.08C597.552 69.2381 594.435 68.2971 591.642 67.2614C588.847 66.2246 586.478 64.9457 584.531 63.4223C582.58 61.9015 581.072 60.0065 579.998 57.7389C578.927 55.4714 578.392 52.6539 578.392 49.2847V49.0896C578.392 45.9814 578.969 43.1806 580.129 40.6846C581.287 38.1922 582.911 36.038 585.004 34.2238C587.094 32.4105 589.592 31.0162 592.497 30.0445C595.4 29.0729 598.602 28.587 602.099 28.587C607.087 28.587 611.671 29.3329 615.849 30.8212C620.027 32.3121 623.868 34.4504 627.364 37.2354L619.592 48.5072C616.546 46.4347 613.566 44.7988 610.651 43.5996C607.736 42.4022 604.82 41.803 601.907 41.803C598.992 41.803 596.804 42.3705 595.347 43.503C593.889 44.6381 593.161 46.0464 593.161 47.7297V47.9247C593.161 49.0264 593.372 49.9814 593.794 50.7914C594.217 51.6014 594.978 52.3297 596.084 52.9763C597.188 53.6256 598.697 54.2406 600.613 54.823C602.529 55.4064 604.948 56.0864 607.874 56.8639C611.314 57.7723 614.384 58.7914 617.079 59.9239C619.774 61.059 622.048 62.419 623.901 64.0065C625.75 65.5932 627.146 67.4557 628.089 69.5923C629.03 71.7307 629.504 74.2915 629.504 77.2689V77.4642C629.504 80.8326 628.891 83.8282 627.669 86.4515C626.444 89.0758 624.738 91.279 622.551 93.0601C620.363 94.8416 617.749 96.2027 614.717 97.1409C611.683 98.0791 608.319 98.55 604.628 98.55Z" fill="#A1A1A1"/>
<path d="M156.111 37.4756V97.5707H170.881V60.5919L156.111 37.4756Z" fill="#A1A1A1"/>
<path d="M205.692 33.2656L190.121 58.3147L172.242 29.552H156.2L189.851 82.2174H190.218L209.361 53.1646V97.5707H224.131V62.3296L205.692 33.2656Z" fill="#A1A1A1"/>
<path d="M319.728 77.3741C319.312 77.8731 318.877 78.3574 318.414 78.8203C316.452 80.7822 314.113 82.3276 311.399 83.4564C308.685 84.5861 305.723 85.1513 302.513 85.1513C299.304 85.1513 296.351 84.5861 293.656 83.4564C290.962 82.3276 288.634 80.8032 286.673 78.88C284.712 76.9596 283.185 74.7001 282.096 72.1039C281.005 69.5087 280.461 66.7245 280.461 63.7533V63.6338C280.461 60.6617 281.016 57.8784 282.125 55.2823C283.234 52.688 284.77 50.4082 286.732 48.4473C288.693 46.4855 291.031 44.9392 293.746 43.8103C294.169 43.6346 294.608 43.4975 295.043 43.3491C295.233 43.2814 295.42 43.2067 295.613 43.1452C295.961 43.0381 296.319 42.9546 296.674 42.8632C296.977 42.7868 297.277 42.7033 297.585 42.6418C299.196 42.3027 300.874 42.1164 302.632 42.1164C305.842 42.1164 308.794 42.6814 311.489 43.8103C314.183 44.9392 316.511 46.4661 318.473 48.3866C318.797 48.7055 319.091 49.0455 319.391 49.382L328.437 38.9537C326.882 37.3987 325.196 35.9737 323.384 34.6778C321.569 33.3828 319.593 32.282 317.455 31.3745C315.319 30.4669 312.938 29.7544 310.314 29.2361C307.69 28.7186 304.791 28.4586 301.617 28.4586C296.37 28.4586 291.575 29.3819 287.236 31.2278C282.894 33.0745 279.17 35.6012 276.06 38.807C272.952 42.0128 270.522 45.7405 268.773 49.9821C267.023 54.2263 266.15 58.7746 266.15 63.6347V63.8288C266.15 68.6865 267.023 73.2539 268.773 77.5296C270.522 81.8057 272.952 85.5148 276.06 88.6556C279.17 91.7991 282.862 94.2776 287.138 96.0882C291.413 97.9023 296.044 98.809 301.033 98.809C304.337 98.809 307.317 98.5341 309.973 97.9832C312.629 97.4324 315.075 96.6243 317.31 95.556C319.544 94.4866 321.6 93.2093 323.48 91.7181C325.359 90.2266 327.172 88.5433 328.922 86.6631L319.728 77.3741Z" fill="#A1A1A1"/>
<path d="M411.946 63.6338C411.946 66.6058 411.39 69.391 410.282 71.9852C409.172 74.5813 407.636 76.8594 405.675 78.8203C403.714 80.7822 401.376 82.3276 398.661 83.4564C395.946 84.5861 392.985 85.1513 389.775 85.1513C386.565 85.1513 383.612 84.5861 380.918 83.4564C378.223 82.3276 375.895 80.8032 373.934 78.88C371.973 76.9596 370.447 74.7001 369.357 72.1039C368.267 69.5087 367.723 66.7245 367.723 63.7533V63.6338C367.723 60.6617 368.277 57.8784 369.387 55.2823C370.496 52.688 372.031 50.4082 373.994 48.4473C375.955 46.4855 378.294 44.9392 381.008 43.8103C383.721 42.6814 386.684 42.1164 389.894 42.1164C393.104 42.1164 396.055 42.6814 398.75 43.8103C401.444 44.9392 403.773 46.4661 405.735 48.3866C407.695 50.3106 409.22 52.5685 410.311 55.1637C411.4 57.759 411.946 60.5422 411.946 63.5143V63.6338ZM423.31 49.7879C421.527 45.5454 419.034 41.8538 415.826 38.7103C412.619 35.5687 408.814 33.0745 404.409 31.2278C400.004 29.3819 395.179 28.4586 389.931 28.4586C384.684 28.4586 379.841 29.3819 375.404 31.2278C370.967 33.0745 367.144 35.6012 363.938 38.807C360.731 42.0128 358.22 45.7405 356.407 49.9821C354.592 54.2263 353.687 58.7746 353.687 63.6347V63.8288C353.687 68.6865 354.576 73.2381 356.359 77.4815C358.14 81.724 360.635 85.4183 363.841 88.5591C367.047 91.7023 370.852 94.1948 375.258 96.0398C379.663 97.8865 384.489 98.809 389.737 98.809C394.984 98.809 399.826 97.8865 404.264 96.0398C408.7 94.1948 412.525 91.669 415.729 88.4617C418.936 85.254 421.447 81.529 423.26 77.2862C425.072 73.0449 425.981 68.4912 425.981 63.6347V63.4396C425.981 58.5804 425.09 54.0313 423.31 49.7879Z" fill="#A1A1A1"/>
<path d="M234.663 70.7531L208.523 29.552H226.014L242.242 56.8572L258.761 29.552H275.765L249.627 70.4607V97.5707H234.663V70.7531Z" fill="#A1A1A1"/>
<path d="M333.489 29.6235H348.454V97.6422H333.489V29.6235Z" fill="#A1A1A1"/>
<path d="M496.38 29.6235H511.343V97.6422H496.38V29.6235Z" fill="#A1A1A1"/>
<path d="M491.547 83.6741V29.6259H476.778L476.764 64.2485L491.547 83.6741Z" fill="#A1A1A1"/>
<path d="M476.76 71.4115V71.4801L444.906 29.6235H431.107V97.6422H445.879V54.402L478.819 97.6422H491.547V90.8414L476.76 71.4115Z" fill="#A1A1A1"/>
</svg>
