<svg width="289" height="159" viewBox="0 0 289 159" fill="none" xmlns="http://www.w3.org/2000/svg">
<path d="M45.1584 158.329L23.8218 158.33V144.517L45.1584 122.669V158.329Z" fill="#A1A1A1"/>
<path d="M174.199 60.2904L145.748 130.669L118.799 158.325L69.2704 158.327V136.571H111.466L129.55 118.487V66.146L114.781 51.3764L132.272 33.337L174.199 60.2904Z" fill="#A1A1A1"/>
<path d="M225.821 111.701L236.263 136.658H169.878L178.326 111.701H225.821Z" fill="#A1A1A1"/>
<path d="M287.004 131.667L289 136.658H259.052L246.574 105.712L287.004 131.667Z" fill="#A1A1A1"/>
<path d="M101.175 72.174L105.438 76.4377V108.195L101.175 112.459H69.2704V97.9785L94.4704 72.174H101.175Z" fill="#A1A1A1"/>
<path d="M211.634 83.2506L207.046 88.242H195.163L188.674 81.7532L192.667 70.7722L211.634 83.2506Z" fill="#A1A1A1"/>
<path d="M126.147 29.6987L110.067 45.9393H45.154V111.505L23.6704 133.204L23.6841 23.8183H119.383L126.147 29.6987Z" fill="#A1A1A1"/>
<path d="M283.008 121.185L242.578 95.2297L213.048 23.8183H188.513L176.692 52.304L137.759 27.8463L164.949 0H232.521L283.008 121.185Z" fill="#A1A1A1"/>
<path d="M85.918 70.0512L69.2659 87.1503V70.0512H85.918Z" fill="#A1A1A1"/>
<path d="M200.65 48.81L211.132 74.266L194.661 63.7841L199.652 48.81H200.65Z" fill="#A1A1A1"/>
<path d="M277.386 145.86H279.535V147.146L280.821 145.86H284.238L286.052 147.692V152.8L284.238 154.632H280.838L279.711 153.699V158.366H277.386V145.86ZM283.11 152.659L283.727 152.043V148.45L283.11 147.833H281.12L279.711 149.26V151.409L281.102 152.659H283.11Z" fill="#A1A1A1"/>
<path d="M266.536 152.777V145.854H268.861V152.054L269.46 152.653H270.869L272.595 150.927V145.854H274.92V154.626H272.771V153.129L271.257 154.626H268.385L266.536 152.777Z" fill="#A1A1A1"/>
<path d="M255.671 152.794V147.686L257.485 145.854H262.523L264.337 147.686V152.794L262.523 154.626H257.485L255.671 152.794ZM261.396 152.688L262.012 152.072V148.408L261.396 147.792H258.613L257.996 148.408V152.072L258.613 152.688H261.396Z" fill="#A1A1A1"/>
<path d="M248.737 145.854H250.886V147.316L252.295 145.854H254.797V147.827H252.771L251.062 149.588V154.626H248.737V145.854Z" fill="#A1A1A1"/>
<path d="M246.278 145.862V156.642L244.376 158.527H239.602L237.964 156.906V155.708H240.289V156.237L240.624 156.589H243.354L243.953 155.972V153.489L242.737 154.634H239.426L237.612 152.802V147.694L239.426 145.862H242.878L244.129 147.06V145.862H246.278ZM243.953 148.909L242.755 147.835H240.606L239.937 148.522V151.974L240.606 152.661H242.526L243.953 151.199V148.909Z" fill="#A1A1A1"/>
<path d="M225.781 152.83V147.81H224.196V145.854H225.816V143.001H228.106V145.854H230.783V147.827H228.106V152.072L228.705 152.654H230.783V154.626H227.595L225.781 152.83Z" fill="#A1A1A1"/>
<path d="M214.383 145.854H216.532V147.316L217.994 145.854H220.829L222.785 147.809V154.626H220.46V148.443L219.861 147.827H218.381L216.708 149.518V154.626H214.383V145.854Z" fill="#A1A1A1"/>
<path d="M203.589 152.829V147.686L205.403 145.854H210.353L212.185 147.686V151.015H205.914V152.142L206.478 152.724H209.349L209.877 152.178V151.72H212.167V152.865L210.423 154.626H205.368L203.589 152.829ZM209.86 149.395V148.373L209.261 147.756H206.513L205.914 148.373V149.395H209.86Z" fill="#A1A1A1"/>
<path d="M188.24 145.854H190.389V147.298L191.816 145.854H194.036L195.233 147.069L196.431 145.854H199.496L201.381 147.756V154.626H199.056V148.443L198.457 147.827H196.977L196.044 148.76V154.626H193.789V148.408L193.225 147.827H192.168L190.566 149.447V154.626H188.24V145.854Z" fill="#A1A1A1"/>
<path d="M177.291 145.844H179.44V147.13L180.726 145.844H184.143L185.958 147.676V152.784L184.143 154.616H180.744L179.616 153.683V158.35H177.291V145.844ZM183.016 152.643L183.632 152.027V148.433L183.016 147.817H181.026L179.616 149.244V151.393L181.008 152.643H183.016Z" fill="#A1A1A1"/>
<path d="M172.051 144.024V142.897L172.861 142.086H174.094L174.905 142.897V144.024L174.094 144.834H172.861L172.051 144.024ZM172.315 145.856H174.64V154.628H172.315V145.856Z" fill="#A1A1A1"/>
<path d="M161.294 152.777V145.854H163.619V152.054L164.218 152.653H165.627L167.353 150.927V145.854H169.678V154.626H167.529V153.129L166.014 154.626H163.143L161.294 152.777Z" fill="#A1A1A1"/>
<path d="M156.683 153.379L155.432 154.629H152.191L150.377 152.797V147.689L152.191 145.857H157.123L159.008 147.76V158.364H156.683V153.379ZM155.115 152.656L156.683 150.983V148.447L156.084 147.83H153.301L152.702 148.447V152.04L153.301 152.656H155.115Z" fill="#A1A1A1"/>
<path d="M139.738 152.829V147.686L141.552 145.854H146.502L148.334 147.686V151.015H142.063V152.142L142.627 152.724H145.498L146.027 152.178V151.72H148.316V152.865L146.573 154.626H141.517L139.738 152.829ZM146.009 149.395V148.373L145.41 147.756H142.662L142.063 148.373V149.395H146.009Z" fill="#A1A1A1"/>
<path d="M0.00146484 36.574L0.00146473 33.9123L10.3644 27.1055L10.3644 27.0619L0.00146443 27.0619L0.0014643 24.2039L15.2731 24.2039L15.2731 26.8656L4.93203 33.6724L4.93203 33.716L15.2731 33.716L15.2731 36.574L0.00146484 36.574Z" fill="#A1A1A1"/>
<path d="M0.0014646 46.8353L0.00146448 44.1301L15.2731 38.545L15.2731 41.5557L11.8915 42.7993L11.8915 48.1662L15.2731 49.4097L15.2731 52.4204L0.0014646 46.8353ZM9.44807 43.4538L3.64484 45.4827L3.64484 45.5264L9.44807 47.4898L9.44807 43.4538Z" fill="#A1A1A1"/>
<path d="M12.7642 65.955L2.51038 65.955L0.00146473 63.446L0.00146441 55.9847L2.46675 53.5195L4.80112 53.5195L4.80113 56.4865L3.55758 56.4865L2.53219 57.5119L2.53219 61.8752L3.64484 62.9879L11.6297 62.9879L12.7424 61.8752L12.7424 57.5119L11.717 56.4865L10.4735 56.4865L10.4735 53.5195L12.8078 53.5195L15.2731 55.9847L15.2731 63.446L12.7642 65.955Z" fill="#A1A1A1"/>
<path d="M0.00146484 72.0955L0.00146471 69.1284L15.2731 69.1284L15.2731 72.0955L0.00146484 72.0955Z" fill="#A1A1A1"/>
<path d="M10.2117 75.3627L15.2731 75.3627L15.2731 78.3297L10.888 78.3297L9.42625 79.6387L9.42625 84.3948L15.2731 84.3948L15.2731 87.3618L0.00146484 87.3618L0.00146443 77.7843L2.35766 75.4499L6.98279 75.4499L8.48814 76.9335L10.2117 75.3627ZM6.98279 84.3948L6.98279 79.1369L6.21921 78.3734L3.25214 78.3734L2.48856 79.1369L2.48856 84.3948L6.98279 84.3948Z" fill="#A1A1A1"/>
<path d="M0.00146484 100.37L0.00146437 89.5484L2.51038 89.5484L2.51038 97.4024L6.74281 97.4024L6.74281 90.5956L9.25172 90.5956L9.25172 97.4024L15.2731 97.4024L15.2731 100.37L0.00146484 100.37Z" fill="#A1A1A1"/>
<path d="M0.0014646 110.632L0.00146448 107.927L15.2731 102.342L15.2731 105.353L11.8915 106.596L11.8915 111.963L15.2731 113.207L15.2731 116.218L0.0014646 110.632ZM9.44807 107.251L3.64484 109.28L3.64484 109.323L9.44807 111.287L9.44807 107.251Z" fill="#A1A1A1"/>
<path d="M0.00146484 130.556L0.00146473 127.895L10.3644 121.088L10.3644 121.044L0.00146443 121.044L0.0014643 118.186L15.2731 118.186L15.2731 120.848L4.93203 127.655L4.93203 127.698L15.2731 127.698L15.2731 130.556L0.00146484 130.556Z" fill="#A1A1A1"/>
<path d="M0.00170874 140.822L0.00170862 138.117L15.2734 132.532L15.2734 135.542L11.8918 136.786L11.8918 142.153L15.2734 143.396L15.2734 146.407L0.00170874 140.822ZM9.44831 137.44L3.64509 139.469L3.64509 139.513L9.44831 141.476L9.44831 137.44Z" fill="#A1A1A1"/>
<path d="M0.00146484 159.002L0.00146443 149.464L2.33079 147.14L7.61491 147.14L9.96581 149.486L9.96581 156.047L15.099 156.047L15.099 159.002L0.00146484 159.002ZM7.50707 150.811L6.7522 150.051L3.21507 150.051L2.4602 150.811L2.4602 156.047L7.50707 156.047L7.50707 150.811Z" fill="#A1A1A1"/>
</svg>
