<svg width="691" height="174" viewBox="0 0 691 174" fill="none" xmlns="http://www.w3.org/2000/svg">
<path d="M76.0427 110.758C88.5981 118.558 99.0732 122.422 107.492 122.422C113.168 122.651 118.76 120.99 123.401 117.697C125.684 116.007 127.514 113.773 128.728 111.196C129.941 108.619 130.499 105.78 130.352 102.933C130.344 100.133 129.719 97.3695 128.522 94.8419C127.324 92.3142 125.583 90.0853 123.425 88.3158C119.014 84.8327 114.147 81.9761 108.961 79.8263L101.619 76.4304C85.4327 69.0974 77.3399 58.8443 77.3399 45.6711C77.1988 41.7228 77.9877 37.7969 79.6422 34.2134C81.2967 30.6299 83.77 27.4901 86.8604 25.0501C93.1348 20.1318 100.937 17.6039 108.887 17.9139C118.032 17.9208 126.995 20.4762 134.781 25.2961V39.1993C125.661 32.2764 116.825 28.815 108.276 28.815C103.437 28.5847 98.6636 30.0166 94.7412 32.8752C92.8582 34.2998 91.3499 36.1654 90.3475 38.3098C89.3451 40.4541 88.879 42.8122 88.9897 45.179C88.9897 53.3814 95.7691 60.5258 109.328 66.6121L116.964 70.0079C134.129 77.6362 142.711 88.6686 142.711 103.105C142.869 107.506 142.02 111.884 140.229 115.903C138.439 119.922 135.754 123.474 132.383 126.285C125.464 131.87 116.775 134.761 107.908 134.43C97.0715 134.182 86.4496 131.339 76.9238 126.138L76.0427 110.758Z" fill="#A1A1A1"/>
<path d="M412.296 134.922H410.46L363.592 21.5311H377.346L411.806 106.698L447.172 21.5311H459.923L412.296 134.922Z" fill="#A1A1A1"/>
<path d="M558.702 130.641V83.4934L516.851 21.4333H531.878L565.53 71.5095L601.948 21.4333H616.168L571.576 82.4599V130.543L558.702 130.641Z" fill="#A1A1A1"/>
<path d="M187.255 173.335L299.47 94.0251L254.975 0L253.531 0.0246075L185.762 172.301L187.255 173.335Z" fill="#A1A1A1"/>
<path d="M257.251 123.824L325.976 153.944L327.248 152.615L299.494 93.9506L257.251 123.824Z" fill="#595959"/>
</svg>
